<svg width="18" height="18" viewBox="0 0 18 18" fill="none" xmlns="http://www.w3.org/2000/svg">
<path fill-rule="evenodd" clip-rule="evenodd" d="M1.55201 3.94379C1.5 4.21946 1.5 4.55042 1.5 5.21231V10.5C1.5 13.3284 1.5 14.7427 2.37868 15.6213C3.25736 16.5 4.67157 16.5 7.5 16.5H10.5C13.3284 16.5 14.7427 16.5 15.6213 15.6213C16.5 14.7427 16.5 13.3284 16.5 10.5V8.84842C16.5 6.87416 16.5 5.88701 15.9229 5.24537C15.8699 5.18636 15.8137 5.13018 15.7547 5.0771C15.113 4.5 14.1259 4.5 12.1516 4.5H11.8713C11.006 4.5 10.5734 4.5 10.1703 4.38508C9.94883 4.32195 9.7353 4.23353 9.53408 4.12157C9.16778 3.91775 8.86185 3.61184 8.25 3L7.83728 2.58731C7.63223 2.38225 7.5297 2.27971 7.42196 2.19038C6.95739 1.80528 6.38749 1.56922 5.78668 1.51303C5.64732 1.5 5.50232 1.5 5.21231 1.5C4.55042 1.5 4.21946 1.5 3.94379 1.55201C2.73023 1.78098 1.78098 2.73023 1.55201 3.94379ZM9.1875 7.5C9.1875 7.18934 9.43935 6.9375 9.75 6.9375H13.5C13.8107 6.9375 14.0625 7.18934 14.0625 7.5C14.0625 7.81065 13.8107 8.0625 13.5 8.0625H9.75C9.43935 8.0625 9.1875 7.81065 9.1875 7.5Z" fill="white"/>
</svg>
