<svg width="15" height="15" viewBox="0 0 15 15" fill="none" xmlns="http://www.w3.org/2000/svg">
<path d="M12.8875 4.35386L10.664 2.12816C9.14398 0.606676 8.38402 -0.15407 7.56772 0.0260119C6.75151 0.206101 6.38139 1.21616 5.64122 3.23629L5.14025 4.60357C4.94292 5.14212 4.84426 5.41139 4.66674 5.61968C4.5871 5.71314 4.49647 5.79664 4.39684 5.86837C4.17479 6.02826 3.89854 6.10439 3.34605 6.25671C2.10078 6.59999 1.47814 6.77166 1.24352 7.17906C1.14209 7.35516 1.0893 7.55511 1.09058 7.75843C1.09355 8.22861 1.55022 8.68573 2.46354 9.59998L3.52448 10.6622L0.167584 14.0223C-0.0558613 14.2459 -0.0558613 14.6086 0.167584 14.8323C0.391029 15.0559 0.753313 15.0559 0.976759 14.8323L4.33376 11.472L5.43325 12.5726C6.35236 13.4926 6.81196 13.9527 7.28498 13.9533C7.48432 13.9536 7.68022 13.9018 7.8534 13.803C8.26432 13.5685 8.43689 12.9413 8.78204 11.6868C8.93384 11.1354 9.00966 10.8596 9.16896 10.6376C9.23871 10.5405 9.31956 10.4518 9.41 10.3735C9.61648 10.1947 9.884 10.0942 10.419 9.89323L11.802 9.37355C13.7999 8.62296 14.7988 8.24766 14.9749 7.43361C15.1509 6.61949 14.3964 5.86427 12.8875 4.35386Z" fill="white"/>
</svg>
