<svg width="21" height="25" viewBox="0 0 21 25" fill="none" xmlns="http://www.w3.org/2000/svg">
<path fill-rule="evenodd" clip-rule="evenodd" d="M10.9375 0H9.375C8.5125 0 7.8125 0.7 7.8125 1.5625V23.4375C7.8125 24.3 8.5125 25 9.375 25H10.9375C11.8 25 12.5 24.3 12.5 23.4375V1.5625C12.5 0.7 11.8 0 10.9375 0ZM18.75 12.5H17.1875C16.325 12.5 15.625 13.2 15.625 14.0625V23.4375C15.625 24.3 16.325 25 17.1875 25H18.75C19.6125 25 20.3125 24.3 20.3125 23.4375V14.0625C20.3125 13.2 19.6125 12.5 18.75 12.5ZM3.125 7.03125H1.5625C0.7 7.03125 0 7.73125 0 8.59375V23.4375C0 24.3 0.7 25 1.5625 25H3.125C3.9875 25 4.6875 24.3 4.6875 23.4375V8.59375C4.6875 7.73125 3.9875 7.03125 3.125 7.03125Z" fill="white"/>
</svg>
