<svg width="18" height="18" viewBox="0 0 18 18" fill="none" xmlns="http://www.w3.org/2000/svg">
<path d="M2.25 4.78948C2.25 4.42614 2.50903 4.13159 2.82857 4.13159L4.82675 4.13124C5.22376 4.1198 5.57402 3.83275 5.70911 3.40809C5.71266 3.39692 5.71674 3.38315 5.73139 3.33318L5.81749 3.03942C5.87017 2.85931 5.91607 2.70239 5.98031 2.56213C6.23407 2.00802 6.70356 1.62324 7.2461 1.52473C7.38343 1.49979 7.52887 1.4999 7.69582 1.50002H10.3043C10.4713 1.4999 10.6167 1.49979 10.754 1.52473C11.2966 1.62324 11.7661 2.00802 12.0198 2.56213C12.0841 2.70239 12.13 2.85931 12.1826 3.03942L12.2687 3.33318C12.2833 3.38315 12.2875 3.39692 12.291 3.40809C12.4262 3.83275 12.8459 4.12015 13.2428 4.13159H15.1714C15.4909 4.13159 15.75 4.42614 15.75 4.78948C15.75 5.15282 15.4909 5.44737 15.1714 5.44737H2.82857C2.50903 5.44737 2.25 5.15282 2.25 4.78948Z" fill="white"/>
<path fill-rule="evenodd" clip-rule="evenodd" d="M8.6967 16.5001H9.3033C11.3903 16.5001 12.4339 16.5001 13.1123 15.8356C13.7909 15.1712 13.8602 14.0813 13.9991 11.9014L14.1991 8.76052C14.2745 7.57777 14.3121 6.98643 13.9717 6.61168C13.6313 6.23694 13.0565 6.23694 11.907 6.23694H6.09303C4.94345 6.23694 4.36866 6.23694 4.02829 6.61168C3.68791 6.98643 3.72558 7.57777 3.80091 8.76052L4.00094 11.9014C4.13977 14.0813 4.20919 15.1712 4.88767 15.8356C5.56615 16.5001 6.60967 16.5001 8.6967 16.5001ZM7.68472 9.14145C7.65382 8.8161 7.37815 8.57865 7.06903 8.6112C6.75991 8.64375 6.53438 8.93392 6.56529 9.25927L6.94029 13.2067C6.9712 13.532 7.24685 13.7695 7.55595 13.7369C7.8651 13.7044 8.09062 13.4142 8.05972 13.0888L7.68472 9.14145ZM10.931 8.6112C11.2401 8.64375 11.4656 8.93392 11.4347 9.25927L11.0597 13.2067C11.0288 13.532 10.7531 13.7695 10.444 13.7369C10.1349 13.7044 9.90938 13.4142 9.94028 13.0888L10.3153 9.14145C10.3462 8.8161 10.6219 8.57865 10.931 8.6112Z" fill="white"/>
</svg>
