<svg width="15" height="15" viewBox="0 0 15 15" fill="none" xmlns="http://www.w3.org/2000/svg">
<path d="M10.0387 10.0377C9.7432 10.1542 9.56031 10.2433 9.40977 10.3737C9.31939 10.4519 9.23827 10.5403 9.16856 10.6374C9.00933 10.8593 8.93356 11.135 8.78184 11.6862C8.43676 12.9404 8.26389 13.5678 7.85313 13.8024C7.68001 13.9011 7.48406 13.9531 7.28477 13.9528C6.81175 13.9521 6.35232 13.4919 5.43321 12.5719L4.3336 11.4713L0.976178 14.8317C0.752752 15.0553 0.391034 15.0553 0.167584 14.8317C-0.0558613 14.608 -0.0558613 14.2458 0.167584 14.0221L3.52403 10.6618L2.46348 9.59927C1.5504 8.68526 1.09362 8.22849 1.09044 7.75845C1.08915 7.55512 1.14135 7.35447 1.24278 7.17837C1.47744 6.77109 2.10041 6.59967 3.34532 6.25649C3.8977 6.1042 4.17407 6.02765 4.3961 5.86782C4.49569 5.79612 4.58698 5.71319 4.66661 5.61977C4.7949 5.46924 4.87985 5.28569 4.99278 4.99282L10.0387 10.0377ZM7.567 0.0260247C8.38327 -0.154053 9.14373 0.606168 10.6637 2.12759L12.8873 4.35317C14.3962 5.86359 15.1502 6.61913 14.9742 7.43325C14.8201 8.14566 14.0361 8.52207 12.5035 9.10806L5.90684 2.51235C6.48186 0.97198 6.85505 0.183378 7.567 0.0260247Z" fill="white"/>
<line x1="3.76588" y1="1.99969" x2="13.0997" y2="11.3335" stroke="white" stroke-width="0.8" stroke-linecap="round"/>
</svg>
