<svg width="18" height="18" viewBox="0 0 18 18" fill="none" xmlns="http://www.w3.org/2000/svg">
<path fill-rule="evenodd" clip-rule="evenodd" d="M9.00001 11.8125C9.31066 11.8125 9.56251 11.5606 9.56251 11.25V3.02058L10.823 4.49107C11.0251 4.72694 11.3802 4.75426 11.6161 4.55208C11.852 4.34991 11.8793 3.9948 11.6771 3.75893L9.42706 1.13393C9.32026 1.00925 9.16419 0.9375 9.00001 0.9375C8.83584 0.9375 8.67976 1.00925 8.57296 1.13393L6.32293 3.75893C6.12075 3.9948 6.14807 4.34991 6.38394 4.55208C6.61981 4.75426 6.97492 4.72694 7.17709 4.49107L8.43751 3.02058V11.25C8.43751 11.5606 8.68936 11.8125 9.00001 11.8125Z" fill="white"/>
<path d="M12 6.75C11.4733 6.75 11.21 6.75 11.0209 6.87638C10.939 6.93111 10.8686 7.00144 10.8139 7.08334C10.6875 7.2725 10.6875 7.53585 10.6875 8.0625V11.25C10.6875 12.182 9.93202 12.9375 9 12.9375C8.06805 12.9375 7.31253 12.182 7.31253 11.25V8.0625C7.31253 7.53585 7.31253 7.27248 7.18612 7.0833C7.1314 7.00142 7.06111 6.93112 6.97923 6.87641C6.79006 6.75 6.5267 6.75 6 6.75C3.87868 6.75 2.81802 6.75 2.15901 7.40901C1.5 8.06805 1.5 9.12855 1.5 11.2499V11.9999C1.5 14.1212 1.5 15.1818 2.15901 15.8408C2.81802 16.4999 3.87868 16.4999 6 16.4999H12C14.1213 16.4999 15.1819 16.4999 15.841 15.8408C16.5 15.1818 16.5 14.1212 16.5 11.9999V11.2499C16.5 9.12855 16.5 8.06805 15.841 7.40901C15.1819 6.75 14.1213 6.75 12 6.75Z" fill="white"/>
</svg>
